PathFileType	4	(X/Y/Z)	Patient4_TMGait_0pt7_02_right_42.trc.trc
DataRate	CameraRate	NumFrames	NumMarkers	Units	OrigDataRate	OrigDataStartFrame	OrigNumFrames
84.848484848485	84.848484848485	5	33	mm	84.848484848485	53	       141
Frame#	Time	Sacral			L.Shoulder			Chest			R.Shoulder			Neck			R.ASIS			L.ASIS			R.Thigh.Superior			R.Thigh.Lateral			R.Thigh.Inferior			R.Patella			L.Thigh.Superior			L.Thigh.Lateral			L.Thigh.Inferior			L.Patella			L.Shank.Superior			L.Shank.Lateral			L.Shank.Inferior			R.Shank.Superior			R.Shank.Lateral			R.Shank.Inferior			R.Heel			R.Midfoot.Superior			R.Midfoot.Lateral			R.Toe			L.Heel			L.Midfoot.Lateral			L.Midfoot.Superior			L.Toe			L.Elbow			L.Wrist			R.Elbow			R.Wrist			
		X1	Y1	Z1	X2	Y2	Z2	X3	Y3	Z3	X4	Y4	Z4	X5	Y5	Z5	X6	Y6	Z6	X7	Y7	Z7	X8	Y8	Z8	X9	Y9	Z9	X10	Y10	Z10	X11	Y11	Z11	X12	Y12	Z12	X13	Y13	Z13	X14	Y14	Z14	X15	Y15	Z15	X16	Y16	Z16	X17	Y17	Z17	X18	Y18	Z18	X19	Y19	Z19	X20	Y20	Z20	X21	Y21	Z21	X22	Y22	Z22	X23	Y23	Z23	X24	Y24	Z24	X25	Y25	Z25	X26	Y26	Z26	X27	Y27	Z27	X28	Y28	Z28	X29	Y29	Z29	X30	Y30	Z30	X31	Y31	Z31	X32	Y32	Z32	X33	Y33	Z33	

53	48.152857142857	713.339537705198	1016.270284651541	543.181867076058	891.580581816130	1431.482172291843	338.310643471171	1010.275812411506	1360.060580352892	488.689019203250	950.275670013788	1443.924383076195	668.300353091188	911.819122243929	1495.035792349758	490.995065467928	946.090407554540	946.396179799562	644.909948649975	912.664251142797	960.696928423648	373.121764194453	974.176600793612	741.899043863251	615.914939188038	885.609189947804	635.854914955095	673.163085013079	957.861722556941	580.911041702011	591.936790308710	952.929611235047	492.910340277652	594.804195963408	1008.179986630127	802.512618973953	402.931448696436	981.589259581425	676.187371264753	315.193943559739	1093.733088379305	623.627344309920	375.315243490512	1117.344101431251	533.637361039408	362.306700656448	1053.197546008998	461.114494254619	355.890095280260	912.093446919804	414.141587637947	310.104781460616	905.847564266647	283.913862612313	362.680606416760	921.418979621319	406.615875408710	598.778838194339	846.822058004002	303.408673054008	656.812608726212	886.408010508141	209.342344417607	589.088598441012	746.525836585070	47.300632694057	553.742855191879	920.232513355755	97.648946484631	589.284990910248	830.860595365887	37.981916305207	625.615570807905	1039.008492398448	39.484563931942	613.229398419967	719.769322005671	217.371396640937	403.398777097470	774.954058885349	168.340893404465	323.567717656926	880.403305958460	176.114717501050	342.354278875828	956.171879817404	62.137414717468	316.559243165063	819.509024587142	1079.782096574480	245.949630185567	882.708734788211	824.909470884455	246.027776537963	980.937480636790	1101.287973001041	804.866470891737	1159.049785996591	912.249040021328	772.653326462778	
54	48.164642857143	712.330795565010	1016.816195721959	543.362374791531	890.831383717868	1431.631655950342	338.405786359807	1009.630010568145	1360.014688143498	488.552520944530	950.234281845621	1444.070594032282	668.303554092682	911.432470541644	1495.227836690861	491.123785280830	944.725547627593	946.749801884455	645.304473424827	911.544282468222	960.704682749494	373.406379848300	969.942190230553	741.465031335414	616.143212512761	879.838537103599	636.447589441120	673.919959648503	951.079801252566	580.354422405112	592.985668796492	944.874034023672	492.943005615488	595.939175183611	1008.013938764262	805.384966009708	403.373674978975	984.157574807684	679.136073953152	314.501357474676	1096.768823357785	628.342166231748	374.839628559983	1122.495600055182	539.346867702556	361.440578513069	1061.233492960471	464.956897967060	355.092385223984	922.239898978482	411.628151901237	309.733684003095	922.329915777123	281.048030305665	362.100722970306	913.397751108349	406.911871541997	599.660545804773	838.378276986777	303.775203436265	657.470218575675	878.233730879963	209.683544235558	589.773264050155	738.258783427962	47.636477403210	553.912769205877	912.051830008771	97.649481432309	589.502558212415	822.601399717840	38.082278113152	625.795187904007	1030.702064057329	39.389466082375	613.322899226665	739.682607681290	205.260380605342	403.469683239721	796.938701251777	159.477247777916	323.111378666498	902.040566718642	172.482115273172	341.491423614003	983.449937303190	62.592439736216	314.719740749449	811.074933703144	1081.376506316893	247.369170690865	858.957952207430	823.280345457521	248.544098405776	990.925874126352	1102.924513202268	805.055018162708	1179.325450732671	925.228751153408	769.111764863870	
55	48.176428571429	711.375893434921	1017.250841783069	543.360215277477	890.174298606570	1431.730485149433	338.410063169207	1009.021344595849	1359.857704553402	488.341554021565	950.161306906464	1444.055463554753	668.225104174589	911.059969869818	1495.302373245462	491.185595421363	943.340307914480	947.003657845485	645.583268548427	910.537200683447	960.515149057155	373.553107043496	965.666701185418	740.943479617411	616.418797572161	873.905924782851	637.011573741866	674.621333708744	944.166401762316	579.763565997154	594.034285742866	936.724303261971	492.961267771322	597.077046575992	1007.564350627405	807.657667685117	403.726909866989	986.112210916858	681.513143828246	313.828461450137	1099.029609510438	632.284404090068	374.347734956309	1126.684856905508	544.406766874573	360.648254505083	1068.519773773361	468.310734258410	354.330262898214	932.188285517543	408.380143682018	309.200010553253	938.936909524246	277.738289830659	361.359880781622	905.239327405251	407.218238211273	600.507404644471	829.830296502724	304.130162857967	658.089319948610	869.976232690583	210.018559749180	590.448474690014	729.980492694290	47.938883362033	554.085859718326	903.871252307376	97.660229838905	589.730583824006	814.329657601328	38.171536392231	625.993401433689	1022.385026950807	39.304417215832	613.413513131635	760.425283379721	192.468076013057	403.132955065469	819.746835881417	150.146474079703	322.362843654920	924.135431506408	168.563206242841	340.497354714356	1011.185764649499	63.182918985982	312.922400299727	802.545984682369	1083.315187224228	248.282651645368	836.322045372208	823.160396698389	251.309459069035	1000.585880232273	1104.745549825047	805.048830903505	1198.555077326895	939.133344846373	765.072112504724	
56	48.188214285714	710.478921409287	1017.574399515565	543.177889014991	889.594708342193	1431.768976081040	338.321840006485	1008.448681181553	1359.585459061025	488.048574717954	950.058535615308	1443.872345741223	668.061457047676	910.701103344469	1495.251453543902	491.176595131424	941.945512880691	947.147575452071	645.750632411928	909.648529732741	960.126648311197	373.558913303571	961.378510451302	740.316512722726	616.777228720385	867.835180266921	637.525497741775	675.252972627715	937.169546906021	579.131793411843	595.069481262321	928.543598520712	492.936584735341	598.188905235101	1006.838106472384	809.298019550133	404.005148245717	987.417868694034	683.245574674105	313.224733316079	1100.509102416554	635.371242079824	373.871550247003	1129.894472309725	548.726152327197	359.987869913076	1075.008531562848	471.129168874847	353.658761468136	941.962315269423	404.442089174871	308.474930805161	955.597486753788	274.085008154560	360.460585155893	896.985492791006	407.510493186074	601.304153232024	821.213227268122	304.462409377068	658.655074012952	861.651525050859	210.330764684409	591.094786713645	721.686614809028	48.190198871419	554.256089564163	895.687973050691	97.681832126285	589.966556060855	806.041744388469	38.243865828174	626.203151896040	1014.057637146902	39.233828938840	613.503611753063	781.952199935118	179.188529914228	402.296385181034	843.344487111344	140.545854198679	321.273695769436	946.596292970987	164.516737014667	339.375855711340	1039.233125660543	64.112558691355	311.253981850861	793.968479145109	1085.568776876408	248.765744698433	814.936898070082	824.298564165363	254.280802758199	1009.889970253050	1106.720897655918	804.829707018293	1216.625286455410	953.856011999554	760.557122881713	
57	48.200000000000	709.643259265653	1017.785066913804	542.816934817635	889.081317138297	1431.733947676198	338.139088603951	1007.910802397611	1359.194316172664	487.669243758890	949.924897603615	1443.519938586303	667.808153743952	910.354044214040	1495.067147344775	491.091925047349	940.553993609844	947.170865298652	645.814166909509	908.887645894037	959.542625335980	373.420141640171	957.106977835147	739.569862095773	617.229740515265	861.669669154679	637.966244053443	675.796657649755	930.150695941572	578.451368664065	596.066563625855	920.405991165784	492.837812827552	599.237589074952	1005.851822605212	810.278820217156	404.209542195061	988.048349205608	684.264012595335	312.726717490601	1101.206706937937	637.523982393538	373.439975101259	1132.116659628244	552.221765957221	359.517834273041	1080.655319998122	473.369661594208	353.134140083841	951.570449059864	399.866916405822	307.539854806850	972.219172054764	270.183900100128	359.420362942789	888.693105600052	407.759237888717	602.033476286463	812.572612612175	304.758713605159	659.150358600647	853.282843575982	210.600089255676	591.689196856643	713.374380124886	48.371957524595	554.414916789290	887.497884832595	97.713299379912	590.204755721426	797.734549523260	38.293429431861	626.413301925833	1005.721066483058	39.182294637324	613.594399980075	804.174081398980	165.609714215343	400.899445626055	867.654816721084	130.863315690655	319.820089214263	969.304519702912	160.489917973276	338.143257184477	1067.423676393740	65.559014903069	309.802793474466	785.397228238986	1088.100825273646	248.903150803974	794.862544272048	826.444775686894	257.408153001327	1018.820244674787	1108.821202715270	804.380367233419	1233.438873252790	969.271289518519	755.601446248465	
